<svg id="Capa_1" data-name="Capa 1" xmlns="http://www.w3.org/2000/svg" viewBox="0 0 91 91"><defs><style>.cls-1{fill:#393b41;}</style></defs><path class="cls-1" d="M45.12,0A45.5,45.5,0,1,0,91,45.12,45.5,45.5,0,0,0,45.12,0Zm.65,77A31.46,31.46,0,1,1,77,45.23,31.47,31.47,0,0,1,45.77,77h0Z" transform="translate(0 0)"/><path class="cls-1" d="M62.42,36.65,46,28.72a.53.53,0,0,0-.46,0L29.13,36.65a.52.52,0,0,0-.3.48V56.38a.52.52,0,0,0,.3.47l16.42,7.93a.45.45,0,0,0,.23,0,.89.89,0,0,0,.23,0l16.41-7.93a.52.52,0,0,0,.3-.47V37.13A.52.52,0,0,0,62.42,36.65ZM45.78,29.79,61,37.13l-4.41,2.12h-.09L41.38,32ZM40.19,32.5l15.17,7.33-3.1,1.5L37.09,34Zm15.53,8.33v5.55l-2.9,1.4V42.24ZM61.66,56,46.31,63.5V45.39L50,43.62a.55.55,0,0,0-.46-1L45.78,44.5l-1.47-.7a.55.55,0,0,0-.46,1l1.4.68v18L29.89,56V38l11.69,5.65a.59.59,0,0,0,.23.05.53.53,0,0,0,.23-1L30.58,37.13l5.26-2.54,15.91,7.68h0v6.35a.54.54,0,0,0,.24.45.51.51,0,0,0,.29.08.45.45,0,0,0,.23,0l4-1.91a.55.55,0,0,0,.3-.48V40.33L61.69,38V56Z" transform="translate(0 0)"/><path class="cls-1" d="M34.26,54l-2.41-1.16a.53.53,0,0,0-.71.24.54.54,0,0,0,.25.71l2.41,1.16A.46.46,0,0,0,34,55a.57.57,0,0,0,.48-.3A.54.54,0,0,0,34.26,54Z" transform="translate(0 0)"/><path class="cls-1" d="M36.5,52.55l-4.63-2.24a.55.55,0,0,0-.46,1L36,53.5a.45.45,0,0,0,.23,0,.53.53,0,0,0,.47-.3A.52.52,0,0,0,36.5,52.55Z" transform="translate(0 0)"/></svg>