<svg id="Capa_1" data-name="Capa 1" xmlns="http://www.w3.org/2000/svg" viewBox="0 0 91 91"><defs><style>.cls-1{fill:#393b41;}</style></defs><path class="cls-1" d="M45.14,0A45.5,45.5,0,1,0,91,45.14v0A45.5,45.5,0,0,0,45.14,0Zm.64,77A31.46,31.46,0,1,1,77,45.27,31.47,31.47,0,0,1,45.78,77h0Z" transform="translate(0 0)"/><path class="cls-1" d="M27.06,64.77h3.79a2.08,2.08,0,0,0,1.38-.54,2,2,0,0,0,2.76,0,2,2,0,0,0,2.75,0,2.08,2.08,0,0,0,1.38.54h3.79a1.73,1.73,0,0,0,0-3.45h-1a.69.69,0,0,1-.69-.69h0V53.05a3.46,3.46,0,0,0-2.76-3.38v-.75a3.4,3.4,0,0,0-1.38-2.74V24.11a.69.69,0,0,0-.69-.69H33.61a.69.69,0,0,0-.69.69V46.18a3.41,3.41,0,0,0-1.38,2.74v.75a3.46,3.46,0,0,0-2.76,3.38v7.58a.67.67,0,0,1-.67.69h-1a1.73,1.73,0,0,0,0,3.45Zm6.55-1.36a.69.69,0,0,1-.69-.69h0v-11a.69.69,0,0,1,.69-.69h.69V62.7a.69.69,0,0,1-.67.71Zm2.75,0a.67.67,0,0,1-.68-.68h0V51h.68a.69.69,0,0,1,.69.69v11a.69.69,0,0,1-.64.74Zm3.45-10.34v7.58a2.07,2.07,0,0,0,2.07,2.07h1a.35.35,0,1,1,0,.69H39.14a.69.69,0,0,1-.69-.69h0V51.1a2.07,2.07,0,0,1,1.36,1.95ZM34.3,24.8h1.38V45.54a3.44,3.44,0,0,0-1.38,0ZM32.92,48.92a2.07,2.07,0,0,1,4.13-.29,1.41,1.41,0,0,1,0,.29v.68H32.92ZM27.06,62.7h1a2.07,2.07,0,0,0,2.08-2.06h0V53.05a2.08,2.08,0,0,1,1.38-2v11.6a.69.69,0,0,1-.69.69H27.06a.35.35,0,0,1-.34-.35A.34.34,0,0,1,27.06,62.7Z" transform="translate(0 0)"/><path class="cls-1" d="M55,39.27h1.38v1.38H55Z" transform="translate(0 0)"/><path class="cls-1" d="M56.35,37.89h1.38v1.38H56.35Z" transform="translate(0 0)"/><path class="cls-1" d="M57.73,39.27h1.41v1.38H57.73Z" transform="translate(0 0)"/><path class="cls-1" d="M56.35,40.65h1.38V42H56.35Z" transform="translate(0 0)"/><path class="cls-1" d="M61.86,35.82h1.38V37.2H61.86Z" transform="translate(0 0)"/><path class="cls-1" d="M63.24,34.41h1.38v1.38H63.24Z" transform="translate(0 0)"/><path class="cls-1" d="M64.62,35.82H66V37.2H64.62Z" transform="translate(0 0)"/><path class="cls-1" d="M63.24,37.2h1.38v1.38H63.24Z" transform="translate(0 0)"/><path class="cls-1" d="M49.73,47a3.72,3.72,0,0,0-1-.14,3.45,3.45,0,0,0-3.38,2.76,2.07,2.07,0,0,0,.1,4.13h.08l.24,2L44.53,57a2.17,2.17,0,0,0-.62,1.52,2.11,2.11,0,0,0,1.32,2,2.21,2.21,0,0,0,.84.17h.31l.3,2.34a2.07,2.07,0,0,0,2,1.82H60A2.07,2.07,0,0,0,62,63l1.13-9.27h.08a2.07,2.07,0,1,0,0-4.14h-.08a2.73,2.73,0,0,0-2.62-2.06A6.19,6.19,0,0,0,49.73,47ZM44.8,51.67a.69.69,0,0,1,.69-.69h5.06l-1.41,1.43H45.49a.69.69,0,0,1-.69-.69ZM47,53.74h.84l-.74.75ZM45.8,59.19a.76.76,0,0,1-.48-.71.75.75,0,0,1,.23-.55l7-7h2.19l-8,8a.77.77,0,0,1-.84.16Zm14.84,3.59a.68.68,0,0,1-.68.61H48.77a.68.68,0,0,1-.68-.61l-.37-2.89,6.16-6.15h7.89Zm3.29-11.11a.69.69,0,0,1-.69.69h-8L56.62,51h6.6a.69.69,0,0,1,.71.67Zm-4.48-3.15a.68.68,0,0,0,.77.42h.26a1.39,1.39,0,0,1,1.19.68H46.83a2,2,0,0,1,1.94-1.37,1.93,1.93,0,0,1,.94.24.72.72,0,0,0,.54,0,.69.69,0,0,0,.4-.35,4.81,4.81,0,0,1,8.8.36Z" transform="translate(0 0)"/></svg>