<svg id="Capa_1" data-name="Capa 1" xmlns="http://www.w3.org/2000/svg" viewBox="0 0 91 91"><defs><style>.cls-1{fill:#393b41;}</style></defs><path class="cls-1" d="M45.14,0A45.5,45.5,0,1,0,91,45.14v0A45.5,45.5,0,0,0,45.14,0Zm.64,77A31.46,31.46,0,1,1,77,45.27,31.47,31.47,0,0,1,45.78,77h0Z" transform="translate(0 0)"/><path class="cls-1" d="M55.84,65.84a.85.85,0,0,0,.85-.85V24a.85.85,0,0,0-.85-.85H35.42a.85.85,0,0,0-.85.85V65a.85.85,0,0,0,.85.85Zm-19.57-41H55V64.13H36.27Z" transform="translate(0 0)"/><path class="cls-1" d="M48.14,34.28h-1.7v-6h-1.7v6H43a.85.85,0,0,0-.85.85V51.3a3.38,3.38,0,0,0,2.55,3.28v6.15h1.7V54.58A3.38,3.38,0,0,0,49,51.3V35.13a.85.85,0,0,0-.85-.85ZM43.89,36h3.4v1.71h-3.4Zm3.4,15.32a1.7,1.7,0,0,1-3.4,0h0V39.41h3.4Z" transform="translate(0 0)"/></svg>