<svg id="Capa_1" data-name="Capa 1" xmlns="http://www.w3.org/2000/svg" viewBox="0 0 90.6 90.6"><defs><style>.cls-1{fill:#393b41;}</style></defs><path class="cls-1" d="M45.3,0A45.3,45.3,0,1,0,90.6,45.3,45.3,45.3,0,0,0,45.3,0Zm0,76.63A31.33,31.33,0,1,1,76.63,45.3h0A31.33,31.33,0,0,1,45.3,76.63Z" transform="translate(0 0)"/><path class="cls-1" d="M32.66,36.85c1.09,0,1.92-1.37,1.92-3.19s-.83-3.19-1.92-3.19-1.91,1.37-1.91,3.19S31.57,36.85,32.66,36.85Zm0-5.11c.16,0,.64.68.64,1.92s-.48,1.91-.64,1.91S32,34.9,32,33.66,32.5,31.74,32.66,31.74Z" transform="translate(0 0)"/><path class="cls-1" d="M58.2,26.64H32.66c-2.5,0-4.47,3.08-4.47,7V48.3a2.53,2.53,0,0,0,2.5,2.56A2.58,2.58,0,0,0,32,50.5v1.63a2.56,2.56,0,0,0,5.11.32,1.71,1.71,0,0,0,0-.32V48a2.51,2.51,0,0,0,1.28.35A2.55,2.55,0,0,0,41,45.79V40.68H58.2a3.86,3.86,0,0,0,3.19-2.06V40a2.56,2.56,0,0,1-2.55,2.56H48.62a3.82,3.82,0,0,0-3.77,3.19h-.7a.64.64,0,0,0-.63.64V48.3h-.64a.64.64,0,0,0-.64.64v16.6a.64.64,0,0,0,.64.64H48a.64.64,0,0,0,.64-.64V49a.64.64,0,0,0-.64-.64h-.63V46.43a.64.64,0,0,0-.64-.64h-.55a2.57,2.57,0,0,1,2.46-1.92H58.84A3.82,3.82,0,0,0,62.67,40V33.66C62.67,29.72,60.7,26.64,58.2,26.64ZM44.79,47.07h1.28V48.3H44.79Zm2.56,2.55V64.94H43.52V49.62ZM32.66,27.91c1.73,0,3.19,2.63,3.19,5.75s-1.46,5.75-3.19,5.75-3.19-2.64-3.19-5.75S30.93,27.91,32.66,27.91Zm7,17.88a1.28,1.28,0,1,1-2.55.23.89.89,0,0,1,0-.23V43.87H35.85v8.3a1.28,1.28,0,0,1-2.55.23.89.89,0,0,1,0-.23v-5.1H32V48.3a1.28,1.28,0,1,1-2.55.23.89.89,0,0,1,0-.23V38.62a3.86,3.86,0,0,0,3.19,2.06h7ZM58.2,39.41H35.3a8.67,8.67,0,0,0,1.87-5.75,8.67,8.67,0,0,0-1.87-5.75H58.2c1.73,0,3.19,2.63,3.19,5.75S59.93,39.41,58.2,39.41Z" transform="translate(0 0)"/><rect class="cls-1" x="44.79" y="62.39" width="1.28" height="1.28"/></svg>